<?xml version="1.0" standalone="no"?>
<!DOCTYPE svg PUBLIC "-//W3C//DTD SVG 20010904//EN"
 "http://www.w3.org/TR/2001/REC-SVG-20010904/DTD/svg10.dtd">
<svg version="1.0" xmlns="http://www.w3.org/2000/svg"
 width="512.000000pt" height="512.000000pt" viewBox="0 0 512.000000 512.000000"
 preserveAspectRatio="xMidYMid meet">
<metadata>
Created by potrace 1.14, written by Peter Selinger 2001-2017
</metadata>
<g transform="translate(0.000000,512.000000) scale(0.100000,-0.100000)"
fill="#000000" stroke="none">
<path d="M2495 5104 c-41 -23 -72 -61 -79 -97 -3 -16 -6 -107 -6 -201 0 -156
2 -174 21 -206 29 -48 57 -68 107 -76 54 -8 110 15 143 60 23 30 24 39 27 223
3 175 1 195 -17 231 -11 21 -32 47 -46 56 -38 25 -114 30 -150 10z"/>
<path d="M1212 4570 c-65 -40 -90 -124 -57 -194 21 -44 245 -263 289 -281 48
-20 79 -19 126 5 45 23 80 80 80 130 0 17 -9 47 -19 68 -24 45 -250 268 -286
282 -42 16 -97 12 -133 -10z"/>
<path d="M3765 4575 c-46 -25 -264 -249 -280 -289 -21 -49 -19 -82 7 -128 41
-72 122 -95 198 -57 43 21 266 248 280 284 23 61 7 127 -43 173 -33 31 -119
40 -162 17z"/>
<path d="M2163 4210 c-74 -16 -156 -63 -218 -125 -65 -64 -93 -115 -152 -275
-19 -52 -40 -108 -47 -125 -7 -16 -30 -75 -50 -130 -21 -55 -46 -120 -56 -145
-16 -38 -261 -676 -335 -875 -13 -33 -39 -102 -59 -153 l-36 -94 0 -582 0
-583 -186 -189 c-102 -104 -297 -301 -434 -439 -136 -137 -256 -265 -265 -284
-32 -63 -7 -144 58 -190 19 -14 114 -16 817 -19 760 -2 797 -2 830 16 30 16
100 110 187 248 113 180 295 576 329 717 3 15 9 27 13 27 4 0 17 -33 30 -73
33 -106 126 -326 191 -453 112 -216 260 -440 307 -465 22 -12 164 -14 827 -14
l801 0 32 24 c35 26 63 85 63 129 -1 15 -9 41 -18 59 -9 17 -212 228 -449 468
l-433 437 0 584 0 583 -150 393 c-83 216 -157 409 -165 428 -15 37 -26 67
-130 340 -37 96 -77 202 -90 235 -13 33 -42 110 -66 170 -63 164 -115 236
-216 299 -72 44 -130 60 -228 60 -104 1 -170 -17 -252 -70 l-54 -34 -46 31
c-25 17 -68 40 -97 50 -59 22 -192 32 -253 19z m157 -306 c29 -12 48 -29 65
-59 l25 -42 0 -558 0 -557 -32 7 c-55 13 -170 15 -218 3 -122 -30 -250 -129
-299 -231 -49 -100 -51 -125 -51 -570 0 -444 1 -452 49 -498 38 -36 115 -48
162 -24 41 22 52 33 73 72 14 28 16 82 16 432 0 338 2 407 15 439 42 105 187
121 256 28 24 -31 24 -33 24 -286 0 -279 -5 -355 -36 -535 -71 -422 -215 -799
-445 -1162 l-39 -62 -527 -1 c-291 0 -528 3 -528 6 0 4 136 144 302 311 373
376 351 352 366 386 9 21 12 173 12 627 l0 600 65 172 c36 95 69 182 75 193 5
11 41 106 81 210 261 690 393 1030 407 1053 19 29 78 61 114 62 15 0 46 -7 68
-16z m607 -3 c46 -22 59 -42 112 -181 18 -47 37 -94 41 -105 5 -11 46 -117 91
-235 143 -378 279 -734 288 -755 5 -11 26 -65 46 -120 21 -55 53 -138 72 -184
l33 -85 0 -592 c0 -325 3 -606 6 -623 8 -39 5 -35 384 -417 l302 -304 -534 0
-533 0 -25 42 c-14 22 -32 51 -40 64 -14 20 -66 110 -113 194 -33 59 -122 260
-156 353 -71 193 -135 447 -161 636 -20 145 -21 161 -27 424 -6 290 -1 322 60
367 42 32 129 34 168 5 67 -50 63 -27 69 -495 5 -442 6 -450 49 -490 47 -44
138 -49 187 -11 64 50 63 43 63 506 1 447 -1 466 -50 570 -12 28 -50 77 -84
110 -117 117 -271 158 -437 119 l-28 -6 0 551 c0 602 1 609 58 648 58 39 96
42 159 14z"/>
<path d="M713 3303 c-34 -7 -91 -70 -99 -108 -13 -70 14 -129 75 -163 36 -20
52 -22 221 -22 202 0 228 6 271 63 55 73 16 200 -69 225 -37 11 -347 15 -399
5z"/>
<path d="M3987 3289 c-42 -22 -76 -82 -77 -132 0 -39 33 -100 67 -123 25 -17
51 -19 221 -22 191 -4 193 -3 236 22 94 55 100 181 13 247 -31 23 -38 24 -227
26 -180 3 -198 1 -233 -18z"/>
</g>
</svg>
